<svg width="50" height="49" viewBox="0 0 50 49" fill="none" xmlns="http://www.w3.org/2000/svg">
<g clip-path="url(#clip0_546_4405)">
<path d="M22.2887 29.3333H14.5553C13.9144 29.3333 13.2997 29.0787 12.8465 28.6255C12.3933 28.1723 12.1387 27.5576 12.1387 26.9167V24.3743C12.1383 24.0585 12.1999 23.7457 12.3199 23.4536L16.0609 14.3742C16.1519 14.1527 16.3066 13.9633 16.5053 13.8299C16.7041 13.6966 16.938 13.6252 17.1774 13.625H37.5137C37.8341 13.625 38.1415 13.7523 38.3681 13.9789C38.5947 14.2055 38.722 14.5129 38.722 14.8333V26.9167C38.722 27.2371 38.5947 27.5445 38.3681 27.7711C38.1415 27.9977 37.8341 28.125 37.5137 28.125H33.3063C33.1128 28.125 32.9222 28.1714 32.7504 28.2603C32.5786 28.3492 32.4307 28.4781 32.319 28.6361L25.73 37.9717C25.6467 38.0898 25.5239 38.174 25.3838 38.2093C25.2437 38.2445 25.0956 38.2284 24.9663 38.1638L22.7744 37.0667C22.1576 36.7583 21.6648 36.2482 21.3779 35.6211C21.0911 34.994 21.0274 34.2876 21.1975 33.6193L22.2887 29.3333ZM31.472 26.2062V16.0417H17.987L14.5553 24.3743V26.9167H22.2887C22.6567 26.9167 23.0199 27.0008 23.3505 27.1626C23.6811 27.3244 23.9704 27.5595 24.1963 27.8501C24.4222 28.1407 24.5787 28.4791 24.654 28.8393C24.7292 29.1996 24.7211 29.5723 24.6304 29.929L23.5393 34.2162C23.5051 34.3499 23.5178 34.4913 23.5752 34.6169C23.6326 34.7424 23.7312 34.8445 23.8547 34.9062L24.6534 35.3049L30.3446 27.2429C30.6467 26.8152 31.0334 26.4648 31.472 26.2062ZM33.8887 25.7083H36.3053V16.0417H33.8887V25.7083Z" fill="black"/>
</g>
<defs>
<clipPath id="clip0_546_4405">
<rect width="29" height="29" fill="white" transform="translate(10.9336 10)"/>
</clipPath>
</defs>
</svg>
