<svg width="50" height="49" viewBox="0 0 50 49" fill="none" xmlns="http://www.w3.org/2000/svg">
<path d="M13.3509 20.875H16.9759V35.375H13.3509C13.0304 35.375 12.7231 35.2477 12.4965 35.0211C12.2699 34.7945 12.1426 34.4871 12.1426 34.1667V22.0833C12.1426 21.7629 12.2699 21.4555 12.4965 21.2289C12.7231 21.0023 13.0304 20.875 13.3509 20.875ZM19.7466 19.3126L27.4799 11.5793C27.5827 11.4762 27.7193 11.4137 27.8645 11.4033C28.0097 11.3929 28.1537 11.4352 28.2702 11.5225L29.3009 12.2958C29.5872 12.5107 29.8034 12.8056 29.9223 13.1432C30.0412 13.4808 30.0575 13.8461 29.9691 14.1929L28.5759 19.6667H36.3092C36.9502 19.6667 37.5649 19.9213 38.0181 20.3745C38.4713 20.8277 38.7259 21.4424 38.7259 22.0833V24.6257C38.7262 24.9415 38.6647 25.2543 38.5447 25.5464L34.8049 34.6271C34.7136 34.8484 34.5587 35.0377 34.3597 35.1709C34.1607 35.3041 33.9266 35.3751 33.6872 35.375H20.6009C20.2804 35.375 19.9731 35.2477 19.7465 35.0211C19.5199 34.7945 19.3926 34.4871 19.3926 34.1667V20.1669C19.3926 19.8465 19.52 19.5392 19.7466 19.3126Z" fill="#0A66C2"/>
</svg>
